<svg width="35" height="35" viewBox="0 0 662 764" fill="none" xmlns="http://www.w3.org/2000/svg">
<path d="M642.171 596.876L642.17 596.875L642.091 596.869C642.125 596.872 642.152 596.874 642.171 596.876ZM642.171 596.876L642.204 596.878C642.224 596.88 642.2 596.878 642.171 596.876ZM640.919 596.819H639.489L638.096 597.142C637.279 597.331 636.653 597.399 636.16 597.399H100.193C62.6807 597.399 31.4956 626.042 29.2673 662.697L29.24 663.146L29.2451 663.596C29.2628 665.176 29.288 666.431 29.3081 667.33C29.3036 667.372 29.2988 667.418 29.2939 667.465C29.2707 667.69 29.2379 668.033 29.2149 668.435L29.1798 669.052L29.2055 669.668C30.7605 706.929 62.2575 736.232 100.193 736.232H620.525H644.98C645.007 736.242 645.036 736.251 645.064 736.261C645.976 736.573 647.07 737.025 648.055 737.6C648.862 738.072 649.289 738.421 649.5 738.633L649.498 743.862V743.865C649.498 747.733 646.153 751.5 641.262 751.5H97.0596C97.0494 751.5 96.9746 751.497 96.8013 751.479C96.5603 751.453 96.2725 751.412 95.7366 751.332L95.1976 751.252L94.6537 751.219C48.6028 748.41 12.5916 711.341 12.5916 666.815C12.5916 666.707 12.5984 666.51 12.6378 665.964C12.642 665.906 12.647 665.839 12.6525 665.765C12.6876 665.293 12.7453 664.514 12.7713 663.745L12.7806 663.468L12.7776 663.192C12.1466 603.506 12.7782 148.86 12.8503 99.2923L12.8512 98.6366L12.7836 97.9844C12.7439 97.6019 12.6989 97.2665 12.6692 97.051C12.6574 96.965 12.6425 96.8587 12.6336 96.7954C12.8484 50.6381 51.7172 12.5 100.222 12.5H133.358H636.201H641.264C646.155 12.5 649.501 16.2715 649.5 20.1327V20.1346V589.206C649.5 592.991 646.292 596.684 641.563 596.834C641.38 596.825 641.163 596.819 640.919 596.819ZM649.681 738.876C649.67 738.877 649.627 738.828 649.586 738.726C649.672 738.825 649.692 738.876 649.681 738.876ZM161.046 283.405C163.838 283.444 168.232 283.494 173.058 283.545C182.448 283.714 192.684 283.927 201.612 284.123C208.342 284.27 214.318 284.408 218.611 284.508C220.757 284.559 222.483 284.6 223.672 284.628L225.037 284.661L225.391 284.669L225.48 284.672L225.503 284.672L225.508 284.672L225.51 284.672C225.51 284.672 225.51 284.672 225.529 283.882L225.51 284.672L225.67 284.676L225.829 284.676L308.827 284.578C308.969 284.603 309.088 284.622 309.165 284.632C309.592 284.686 309.93 284.704 310.002 284.709C310.23 284.722 310.415 284.726 310.462 284.727C310.688 284.733 310.943 284.733 311.073 284.733C311.426 284.733 311.944 284.73 312.519 284.727C313.684 284.72 315.213 284.707 316.442 284.696C317.059 284.69 317.603 284.685 317.994 284.681L318.454 284.677L318.578 284.676L318.61 284.676L318.619 284.676L318.621 284.675C318.621 284.675 318.621 284.675 318.62 284.595C318.621 284.595 318.621 284.595 318.621 284.595L318.622 284.675L318.622 284.595C319.299 284.586 320.028 284.575 320.814 284.564L390.573 284.482L390.66 284.482L390.747 284.481L555.446 281.987L555.491 281.986L555.156 256.989C546.53 257.089 509.55 257.498 472.781 257.895L472.778 257.661C378.564 258.803 337.285 259.331 320.625 259.564L315.024 259.571L298.359 259.092L298.197 259.088L298.035 259.087L199.775 258.809H199.773L199.766 258.809L199.738 258.808L199.695 258.808L199.629 258.807L199.203 258.803L197.596 258.788C196.217 258.775 194.259 258.757 191.946 258.734C187.319 258.69 181.27 258.63 175.581 258.571C174.851 258.563 174.127 258.555 173.414 258.548C168.633 258.462 164.066 258.388 159.994 258.333L159.91 258.332H159.826C159.116 258.332 158.565 258.334 158.214 258.338C158.124 258.34 158.001 258.342 157.871 258.346C157.808 258.347 157.701 258.351 157.572 258.357C157.524 258.36 157.158 258.376 156.705 258.429L156.699 258.43C156.615 258.439 155.692 258.538 154.601 258.862C153.729 259.157 150.869 260.691 149.111 262.221C146.121 267.478 147.687 277.67 150.779 280.934C152.097 281.777 154.156 282.687 154.815 282.89C155.183 282.986 155.786 283.119 156.021 283.162C156.451 283.236 156.791 283.272 156.905 283.283C157.339 283.328 157.717 283.341 157.721 283.341C158.255 283.364 159.56 283.384 161.046 283.405ZM158.559 283.336C158.564 283.336 158.569 283.336 158.574 283.336C158.366 283.343 158.314 283.339 158.559 283.336Z" stroke="#8E8E8E" stroke-width="25"/>
<rect x="119" y="241" width="460" height="68" fill="#8E8E8E"/>
</svg>
