<svg width="30" height="30" viewBox="0 0 800 800" fill="none" xmlns="http://www.w3.org/2000/svg">
<path d="M652.171 632.876L652.17 632.875L652.091 632.869C652.125 632.872 652.152 632.874 652.171 632.876ZM652.171 632.876L652.204 632.878C652.224 632.88 652.2 632.878 652.171 632.876ZM650.919 632.819H649.489L648.096 633.142C647.279 633.331 646.653 633.399 646.16 633.399H110.193C72.6807 633.399 41.4956 662.042 39.2673 698.697L39.24 699.146L39.2451 699.596C39.2628 701.176 39.288 702.431 39.3081 703.33C39.3036 703.372 39.2988 703.418 39.2939 703.465C39.2707 703.69 39.2379 704.033 39.2149 704.435L39.1798 705.052L39.2055 705.668C40.7605 742.929 72.2575 772.232 110.193 772.232H630.525H654.98C655.007 772.242 655.036 772.251 655.064 772.261C655.976 772.573 657.07 773.025 658.055 773.6C658.862 774.072 659.289 774.421 659.5 774.633L659.498 779.862V779.865C659.498 783.733 656.153 787.5 651.262 787.5H107.06C107.049 787.5 106.975 787.497 106.801 787.479C106.56 787.453 106.272 787.412 105.737 787.332L105.198 787.252L104.654 787.219C58.6028 784.41 22.5916 747.341 22.5916 702.815C22.5916 702.707 22.5984 702.51 22.6378 701.964C22.642 701.906 22.647 701.839 22.6525 701.765C22.6876 701.293 22.7453 700.514 22.7713 699.745L22.7806 699.468L22.7776 699.192C22.1466 639.506 22.7782 184.86 22.8503 135.292L22.8512 134.637L22.7836 133.984C22.7439 133.602 22.6989 133.266 22.6692 133.051C22.6574 132.965 22.6425 132.859 22.6336 132.795C22.8484 86.6381 61.7172 48.5 110.222 48.5H143.358H646.201H651.264C656.155 48.5 659.501 52.2715 659.5 56.1327V56.1346V625.206C659.5 628.991 656.292 632.684 651.563 632.834C651.38 632.825 651.163 632.819 650.919 632.819ZM659.681 774.876C659.67 774.877 659.627 774.828 659.586 774.726C659.672 774.825 659.692 774.876 659.681 774.876ZM400.66 319.331L564.118 317.998C564.615 317.995 565.058 317.991 565.446 317.987L565.199 292.988L565.156 292.989L563.855 292.999C553.218 293.057 516.877 292.707 481.026 292.118L480.965 287.08C381.396 288.288 341.203 288.371 326.723 288.125L326.701 287.079H307.03H306.651L306.273 287.102L209.116 292.998L208.756 293.007L207.145 293.05C205.763 293.087 203.802 293.139 201.485 293.202C196.852 293.329 190.789 293.497 185.081 293.665C179.391 293.833 173.996 294.003 170.728 294.132L170.7 294.133C169.419 294.183 167.698 294.251 166.764 294.363C166.637 294.378 166.426 294.405 166.172 294.447C166 294.475 165.426 294.57 164.718 294.774C164.402 294.865 163.604 295.103 162.655 295.569C162.648 295.573 162.636 295.578 162.621 295.585C162.198 295.785 158.832 297.375 156.91 301.344C156.093 303.528 155.755 308.341 156.317 310.794C157.118 312.655 159.113 315.422 160.129 316.374C161.965 317.913 163.791 318.517 164.198 318.652L164.224 318.661C165.367 319.041 166.319 319.164 166.458 319.183C166.791 319.23 167.062 319.254 167.207 319.266C167.506 319.291 167.762 319.302 167.901 319.307C168.429 319.328 169.128 319.332 169.826 319.332H169.916L170.006 319.331C181.901 319.158 198.17 319.487 211.603 319.867C218.291 320.056 224.223 320.256 228.482 320.408C230.611 320.485 232.321 320.549 233.497 320.595C233.844 320.608 234.145 320.62 234.396 320.63L234.845 320.647L235.192 320.661L235.278 320.665L235.299 320.665L235.304 320.666L235.305 320.666C235.305 320.666 235.305 320.666 235.329 320.097L235.305 320.666L235.611 320.678L235.917 320.676L400.66 319.331ZM330.222 294.905L326.87 294.933L326.775 290.521C326.965 290.675 327.158 290.839 327.351 291.016C328.149 291.744 329.337 293.047 330.222 294.905Z" fill="white" stroke="#8E8E8E" stroke-width="25"/>
<rect x="116" y="243" width="499" height="143" fill="white"/>
<rect x="170" y="262" width="353" height="52" fill="#8E8E8E"/>
</svg>
